<svg xmlns="http://www.w3.org/2000/svg" viewBox="0 0 90.3 90.3"><defs><style>.cls-1{opacity:0.2;}.cls-2{fill:#07ef00;}</style></defs><g id="Calque_2" data-name="Calque 2"><g id="MOCKUP"><g id="level_bar" data-name="level bar"><g id="bar_lvl_1" data-name="bar lvl 1"><g class="cls-1"><path class="cls-2" d="M55.3,80.3H35l-25-25V35L35,10H55.3l25,25V55.3Z"/></g><path class="cls-2" d="M55.3,10l25,25V55.3l-25,25H35l-25-25V35L35,10H55.3M59.44,0H30.86L27.93,2.93l-12.5,12.5L2.93,27.93,0,30.86V59.44l2.93,2.93,12.5,12.5,12.5,12.5,2.93,2.93H59.44l2.93-2.93,12.5-12.5,12.5-12.5,2.93-2.93V30.86l-2.93-2.93-12.5-12.5L62.37,2.93,59.44,0Z"/></g></g></g></g></svg>