<svg xmlns="http://www.w3.org/2000/svg" viewBox="0 0 280.62 71.3"><defs><style>.cls-1,.cls-2{fill:#f3b110;}.cls-2{fill-rule:evenodd;}</style></defs><g id="Calque_2" data-name="Calque 2"><g id="Heander"><g id="Top"><g id="Logo"><g id="Layer_1"><path id="path3983" class="cls-1" d="M233.78,15.64c-29.49,2.62-120.81,2.62-160,2.62a23.42,23.42,0,0,1,2.85,5.48H220A36.16,36.16,0,0,1,233.78,15.64Z"/><path id="path3985" class="cls-1" d="M231.39,47.28c6.18,0,12.61-4.74,13.8-10.22,1.43-5.47-2.62-10.21-8.56-10.21-6.17,0-12.37,4.74-13.8,10.21S225.45,47.28,231.39,47.28Zm1.43-5.23a3.89,3.89,0,0,1-4-5,7.37,7.37,0,0,1,6.43-5.24A4.06,4.06,0,0,1,239.25,37,6.9,6.9,0,0,1,232.82,42.05Z"/><path id="path3987" class="cls-1" d="M87.51,21.84l-8.8,33.77,7.6-4.51,3.81-15.46h10.71L102,30.4H91.57c.47-2.62,1.43-5.71,2.16-8.56Z"/><polygon id="polygon3989" class="cls-1" points="112.71 26.36 106.31 26.36 101.07 47.52 107.24 47.52 112.71 26.36"/><path id="path3991" class="cls-1" d="M130.56,47.52,127,40.39a9.31,9.31,0,0,0,5.94-6.67c1.19-4.28-1.66-7.37-6.67-7.37H115.54l-1.19,5.48h10c1.66,0,2.38.72,2.15,1.89s-1.66,1.89-3.09,1.89H113.16l-2.85,11.88h6.17l1.66-6.43H120l3.09,6.43h7.44Z"/><path id="path3993" class="cls-1" d="M154.81,31.83,156,26.35H138.16l-1.43,5.48h18.08Zm-19,3.78-3.08,11.88h18.07l1.43-5.23H140.57l.46-2.62h10.71l1-3.81H142Z"/><path id="path3995" class="cls-1" d="M188.83,47.52H196l-3.08-21.17h-7.14l-14,21.17h7.14l1.89-2.86h7.86Zm-5.24-7.13,3.32-5.24,1,5.24Z"/><polygon id="polygon3997" class="cls-1" points="206.42 42.28 210.23 26.36 204.03 26.36 198.58 47.52 215.47 47.52 216.64 42.28 206.42 42.28"/><polygon id="polygon3999" class="cls-1" points="165.05 30.4 167.18 22.07 161 22.07 152.44 55.61 160.04 51.07 163.86 35.87 174.31 35.87 177.89 30.4 165.05 30.4"/><path id="path4001" class="cls-1" d="M238.76,18.5c7.36,0,13.07,4,14.75,10L248,31.34c-1.19-4.52-5.24-7.6-10.71-7.6-7.6,0-15.46,5.94-17.35,13.3s2.85,13.31,10.71,13.31c5.47,0,10.94-3.09,14.26-7.37l4.28,2.62c-4.74,5.94-12.37,10-20,10-10.71,0-17.35-8.33-14.75-18.55C216.89,26.82,227.81,18.5,238.76,18.5Z"/><polygon id="polygon4003" class="cls-1" points="275.38 47.75 280.62 26.59 274.44 26.59 265.86 36.57 262.31 26.36 256.13 26.36 250.66 47.52 257.07 47.52 259.92 36.34 263.26 46.33 271.82 36.34 268.97 47.75 275.38 47.75"/><polygon id="polygon4005" class="cls-1" points="78.71 55.61 86.34 51.07 90.13 35.62 83.72 35.62 78.71 55.61"/><polygon id="polygon4007" class="cls-1" points="101.07 47.52 107.24 47.52 110.35 35.62 103.92 35.62 101.07 47.52"/><path id="path4009" class="cls-1" d="M132.22,35.61h-19l-2.85,11.88h6.17l1.66-6.43h1.9l3.08,6.43h7.37l-3.58-7.13A9.17,9.17,0,0,0,132.22,35.61Z"/><polygon id="polygon4011" class="cls-1" points="141.03 39.66 151.72 39.66 152.68 35.87 141.97 35.87 141.97 35.87 138.65 35.87 135.79 35.62 132.71 47.52 150.76 47.52 152.19 42.28 140.54 42.28 141.03 39.66"/><polygon id="polygon4013" class="cls-1" points="171.69 47.52 178.82 47.52 180.74 44.66 188.57 44.66 188.83 47.52 195.96 47.52 194.28 35.87 187.15 35.87 187.87 40.38 183.59 40.38 186.68 35.87 179.55 35.87 171.69 47.52"/><polygon id="polygon4015" class="cls-1" points="207.84 35.87 201.67 35.87 198.58 47.52 215.47 47.52 216.64 42.28 206.42 42.28 207.84 35.87"/><polygon id="polygon4017" class="cls-1" points="152.44 55.61 160.04 51.07 163.86 35.87 157.43 35.87 152.44 55.61"/><path id="path4019" class="cls-1" d="M220.45,35.87h-5.71a11.53,11.53,0,0,0-.23,1.19c-2.62,10.22,4,18.55,14.75,18.55,7.6,0,15.23-4,20-10L245,43c-3.32,4.28-8.79,7.37-14.26,7.37-7.86,0-12.6-5.94-10.71-13.31C220.21,36.57,220.21,36.11,220.45,35.87Z"/><polygon id="polygon4021" class="cls-1" points="257.07 47.52 259.92 36.34 263.26 46.33 271.82 36.34 268.97 47.75 275.38 47.75 278.23 35.87 266.35 35.87 265.86 36.57 265.63 35.87 253.75 35.87 250.66 47.52 257.07 47.52"/></g><g id="Calque_3" data-name="Calque 3"><path class="cls-2" d="M27.17,5.14c1.73.05,4.1,1.76,7.37,3.82A97.71,97.71,0,0,1,50.35,21.65,87.71,87.71,0,0,1,62.41,36.81c2,3.15,3.77,5.4,3.82,7.18A31.66,31.66,0,0,0,35.69,4a33.24,33.24,0,0,0-8.52,1.16Z"/><path class="cls-2" d="M49.9,21.47c9.82,9.82,16,19.57,13.82,21.74-.86.87-2.85.45-5.56-1l-.35-1.54c2,1,3.53,1.17,4.21.49,2-2-3.58-10.66-12.37-19.46A77,77,0,0,0,36.9,11.22l-.44-1A87.42,87.42,0,0,1,49.9,21.47Zm7.3,20.25c-.35-.21-.7-.42-1.08-.63l-.23-1.41c.37.21.72.42,1.08.61Zm-3.91-2.53A83.53,83.53,0,0,1,45.69,33l.38-.77A70.55,70.55,0,0,0,53.2,38ZM38.49,25.77C30.73,17.28,26.21,9.56,28.13,7.65c.1-.07.17-.14.28-.21l1.78,1.91h0c-1.71,1.71,2.24,8.52,9.07,16ZM31.76,9,30.54,7.34A14.89,14.89,0,0,1,34,8.77L34.66,10a10.56,10.56,0,0,0-2.9-1Z"/><path class="cls-1" d="M50.28,21.09A97,97,0,0,1,63,36.43c2.88,4.54,4,8,2.62,9.38s-4.84.26-9.38-2.62A85.71,85.71,0,0,1,45,34.38l.3-.73a84.65,84.65,0,0,0,11.3,8.91c4.23,2.69,7.36,3.81,8.46,2.71s0-4.23-2.73-8.44A95.5,95.5,0,0,0,49.72,21.61,95,95,0,0,0,34.49,9c-4.23-2.69-7.36-3.82-8.44-2.72s.05,4.24,2.74,8.45a85.86,85.86,0,0,0,9,11.43l-.68.35a87.13,87.13,0,0,1-8.95-11.36c-2.88-4.54-4-8-2.62-9.38s4.84-.26,9.37,2.62A95.29,95.29,0,0,1,50.28,21.09Z"/><path class="cls-2" d="M48.9,22.47c-6.27-6.26-12.3-10.38-13.5-9.19-.46.47-.11,1.66.85,3.35l.93.28c-.65-1.24-.86-2.13-.49-2.51,1.08-1.07,6.48,2.62,12.07,8.21a56.47,56.47,0,0,1,6.8,8l.61.31a65.19,65.19,0,0,0-7.27-8.47ZM36.6,17.21l.42.66.84.21c-.14-.24-.28-.45-.4-.66Zm1.68,2.43C39.31,21,40.55,22.5,42,24l.42-.21A52.35,52.35,0,0,1,39,19.76Zm9.14,9.87C52.59,34.19,57.08,37,58.09,36a1.11,1.11,0,0,0,.11-.16L57,34.68h0c-.89.89-4.82-1.52-9.33-5.61Zm9.69,4.26,1,.79a10.11,10.11,0,0,0-1-2.1L56.38,32a6.46,6.46,0,0,1,.73,1.76Z"/><path class="cls-2" d="M49.29,22.08c6.81,6.8,11.09,13.53,9.57,15.05-1.29,1.29-6.31-1.59-11.93-6.61l.19-.38c5.21,4.63,9.85,7.28,11,6.08,1.42-1.42-2.57-7.71-8.94-14s-12.62-10.34-14-8.93c-.4.39-.37,1.14,0,2.17l-.91-.56c-.4-1.1-.42-1.92,0-2.34,1.5-1.5,8.23,2.78,15,9.57Zm-8.37,2.47c-1.31-1.47-2.48-2.9-3.48-4.23l.65.14c.92,1.24,2,2.55,3.21,3.91ZM37.09,19l-.8-.35c-.42-.63-.79-1.24-1.1-1.8l.85.44c.3.54.65,1.13,1.05,1.71Z"/><path class="cls-2" d="M49.06,22.31c5.29,5.28,8.61,10.5,7.41,11.69-.95,1-4.67-1.1-8.91-4.82l1.78-3.55-.77-2.48-1.87-1-1.92.44-2.55,1.29c-3.74-4.26-5.87-8-4.88-9,1.21-1.2,6.45,2.12,11.71,7.41Z"/><polygon class="cls-2" points="30.52 14.24 31.43 15.13 29.09 17.47 28.18 16.58 30.52 14.24"/><rect class="cls-1" x="26.9" y="17.52" width="1.22" height="1.29" transform="translate(-4.79 24.77) rotate(-45)"/><rect class="cls-1" x="58.07" y="43.81" width="2.57" height="1.29" transform="translate(-14.04 55.06) rotate(-45.05)"/><rect class="cls-1" x="56.4" y="46.15" width="1.22" height="1.29" transform="translate(-16.39 53.94) rotate(-44.94)"/><polygon class="cls-2" points="53.62 49.27 54.53 50.18 55.89 48.8 55 47.91 53.62 49.27"/><rect class="cls-1" x="50.2" y="42.3" width="2.62" height="1.73" transform="translate(-15.44 49.07) rotate(-45)"/><rect class="cls-1" x="49.18" y="37.65" width="1.66" height="1.73" transform="translate(-12.59 46.64) rotate(-45)"/><rect class="cls-1" x="50.62" y="35.95" width="2.15" height="1.73" transform="translate(-10.89 47.34) rotate(-45)"/><rect class="cls-1" x="24.38" y="11.64" width="3.65" height="1.73" transform="translate(-1.17 22.19) rotate(-45)"/><rect class="cls-1" x="23.26" y="14.26" width="0.68" height="1.73" transform="translate(-3.78 21.12) rotate(-45)"/><rect class="cls-1" x="20.11" y="16.76" width="1.99" height="1.73" transform="translate(-6.28 20.09) rotate(-45)"/><rect class="cls-1" x="36.3" y="18.03" width="2.32" height="1.29" transform="translate(-2.23 31.95) rotate(-45)"/><rect class="cls-1" x="35.35" y="19.55" width="1.12" height="1.29" transform="translate(-3.76 31.31) rotate(-45)"/><rect class="cls-1" x="31.07" y="20.02" width="1.22" height="1.29" transform="translate(-5.34 28.42) rotate(-44.94)"/><rect class="cls-1" x="59.38" y="45.63" width="4.49" height="1.29" transform="translate(-14.66 57.2) rotate(-45.05)"/><polygon class="cls-2" points="57.92 49.06 58.84 49.95 59.73 49.09 58.81 48.17 57.92 49.06"/><path class="cls-1" d="M53.88,63.93a1,1,0,0,1,1.42.31,1,1,0,0,1-.3,1.42,33.25,33.25,0,0,1-4.77,2.58,35.49,35.49,0,0,1-5.1,1.82,1,1,0,0,1-1.26-.72,1,1,0,0,1,.72-1.27,31.21,31.21,0,0,0,4.8-1.73,34.12,34.12,0,0,0,4.49-2.41Zm-13.17,5a1,1,0,0,1,.31,2c-.56.09-1.17.16-1.8.23s-1.22.12-1.83.14a1,1,0,0,1-.09-2.06c.58,0,1.14-.07,1.71-.11l1.7-.24Zm-7.34.31a1,1,0,1,1-.14,2,35.37,35.37,0,0,1-20.42-8.2l1.78-1.2A33.47,33.47,0,0,0,33.37,69.2Zm-21-6.55-1.07-1,1.8-1.15.28.23ZM9.75,60.17,9.59,60c-.26-.26-.49-.54-.73-.8l2-.87ZM8.35,58.6A35.44,35.44,0,0,1,0,35.66a34.75,34.75,0,0,1,.21-3.81,36.87,36.87,0,0,1,.61-3.76,1,1,0,1,1,2,.42A29.81,29.81,0,0,0,2.27,32a35.09,35.09,0,0,0-.19,3.6A33.59,33.59,0,0,0,9.49,56.71ZM4,24.37a1,1,0,0,1-1.94-.68c.16-.49.38-1,.61-1.54s.44-1,.68-1.52a1,1,0,1,1,1.84.86c-.21.47-.42,1-.63,1.45s-.37.89-.56,1.43Zm4.45-8.45A1,1,0,1,1,6.8,14.73a35.69,35.69,0,0,1,61.65,35.1,36.14,36.14,0,0,1-8.28,11.84,1,1,0,0,1-1.45-.05,1,1,0,0,1,.05-1.45A33.6,33.6,0,0,0,69.34,35.71a33.62,33.62,0,0,0-48.86-30,33.06,33.06,0,0,0-12,10.17Z"/><path class="cls-1" d="M14.69,47.49l-1.9,1.9a1.51,1.51,0,0,0,0,2.45l3.44,3.44h0l3.44,3.44a1.83,1.83,0,0,0,1.12.61,1.84,1.84,0,0,0,1.34-.66L24,56.73l.42.8L22.66,59.3a2.58,2.58,0,0,1-2,.92A2.61,2.61,0,0,1,19,59.35l-3.44-3.44h0l-3.44-3.43a2.69,2.69,0,0,1-.86-1.67,2.58,2.58,0,0,1,.91-2l1.71-1.7Z"/><rect class="cls-1" x="12.32" y="50.98" width="2.99" height="0.87" transform="translate(-32.31 24.85) rotate(-45.02)"/><polygon class="cls-1" points="14.01 53.72 16.14 51.61 16.74 52.22 14.62 54.35 14.01 53.72"/><rect class="cls-1" x="15.43" y="54.09" width="2.99" height="0.87" transform="translate(-33.59 27.92) rotate(-44.98)"/><rect class="cls-1" x="17" y="55.65" width="2.99" height="0.87" transform="translate(-34.24 29.51) rotate(-45)"/><rect class="cls-1" x="18.54" y="57.21" width="2.99" height="0.87" transform="translate(-34.89 31.05) rotate(-45)"/><polygon class="cls-1" points="13.63 48.52 22.92 57.81 24.02 56.73 24.46 57.53 23.24 58.74 22.92 59.05 22.61 58.74 12.72 48.83 12.42 48.52 12.72 48.22 13.89 47.07 14.69 47.49 13.63 48.52"/><path class="cls-1" d="M12.74,45.51a12.89,12.89,0,0,0,4.19,2.8c.21.1.42.17.63.26a11.81,11.81,0,0,0,.61,1.1,12.65,12.65,0,0,1-1.57-.54,14.27,14.27,0,0,1-4.46-3A13.92,13.92,0,0,1,31.83,26.45l.09.09.09.1-.39.72a8.21,8.21,0,0,0-4,.16,8,8,0,0,0-3.43,2.06,7.55,7.55,0,0,0-.94,1.12l-.4-.39a.7.7,0,0,0-.25-.17,9.35,9.35,0,0,1,1-1.17,9,9,0,0,1,3.81-2.26,8.57,8.57,0,0,1,3.09-.36A13.11,13.11,0,0,0,22,23.24a13,13,0,0,0-13,13,12.75,12.75,0,0,0,3.76,9.24Z"/><path class="cls-1" d="M16.72,46.21a12.83,12.83,0,0,1-2.13-3.46l.66-.66a11.46,11.46,0,0,0,1.19,2.34c.07.59.16,1.19.28,1.78Zm5.82-16.07a9.46,9.46,0,0,1,1-1.17,9,9,0,0,1,3.34-2.12A8.83,8.83,0,0,1,30,26.33,12,12,0,0,0,24,26.07,11.83,11.83,0,0,0,18,29.32a12,12,0,0,0-3.51,8l-.87.86v-.4a12.87,12.87,0,0,1,17.42-12l.15.07.32.3.31.31.09.09c0,.05.07.07.09.1l-.39.72h-.07l-.07,0h-.73a8.41,8.41,0,0,0-3.58.42,8.28,8.28,0,0,0-3,1.92,6.51,6.51,0,0,0-.93,1.12l-.4-.4a.54.54,0,0,0-.26-.26Z"/><path class="cls-1" d="M25.93,58.72a12.89,12.89,0,0,1-2.8-4.19,5.41,5.41,0,0,1-.24-.63,10.86,10.86,0,0,1-1.1-.61,12.11,12.11,0,0,0,.54,1.57,14.46,14.46,0,0,0,3,4.47A13.92,13.92,0,0,0,45,39.64l-.1-.1-.09-.09-.73.4a8.06,8.06,0,0,1-.16,4,7.86,7.86,0,0,1-2.06,3.44,6.51,6.51,0,0,1-1.12.93l.4.4a.54.54,0,0,1,.16.26,8.81,8.81,0,0,0,1.17-1,9,9,0,0,0,2.27-3.82A8.7,8.7,0,0,0,45.11,41a13,13,0,0,1-9.92,21.46,12.77,12.77,0,0,1-9.26-3.76Z"/><path class="cls-1" d="M25.26,54.72a12.83,12.83,0,0,0,3.46,2.13l.65-.66A11.46,11.46,0,0,1,27,55a12.06,12.06,0,0,1-1.77-.28Zm16.06-5.8a8.81,8.81,0,0,0,1.17-1,9.23,9.23,0,0,0,2.13-3.35,8.82,8.82,0,0,0,.51-3.13,12.09,12.09,0,0,1,.26,6.06,11.84,11.84,0,0,1-3.25,5.94,12,12,0,0,1-8,3.51l-.87.86h.4a12.87,12.87,0,0,0,12-17.42l-.07-.14c-.09-.1-.18-.21-.3-.33a4.15,4.15,0,0,0-.3-.3l-.1-.1-.09-.09-.73.4v0h0v.05c0,.09,0,0,0,.07h0v0h0v0h0v0h0v0h0v0h0v0h0v.05h0v0h0v0h0v0h0v.23h0v.07h0a8.73,8.73,0,0,1-.42,3.58,8.28,8.28,0,0,1-1.92,3,6.91,6.91,0,0,1-1.12.93l.39.4a.7.7,0,0,1,.26.28Z"/><rect class="cls-1" x="17.06" y="49.68" width="1.4" height="0.54" transform="translate(-30.12 27.19) rotate(-45)"/><rect class="cls-1" x="17.52" y="50.15" width="1.4" height="0.44" transform="translate(-30.28 27.64) rotate(-45)"/><rect class="cls-1" x="18.13" y="50.77" width="1.4" height="0.44" transform="translate(-30.54 28.25) rotate(-45)"/><rect class="cls-1" x="20.53" y="53.18" width="1.4" height="0.44" transform="translate(-31.54 30.66) rotate(-45)"/><path class="cls-1" d="M49.08,23a3.55,3.55,0,0,1,.64,1.42,3.46,3.46,0,0,1-.24,2,110.28,110.28,0,0,1-5.7,11,42.21,42.21,0,0,1-4.54,6.26,10.31,10.31,0,0,0-.07-1.24A45.82,45.82,0,0,0,43,36.88,107.43,107.43,0,0,0,48.69,26a2.47,2.47,0,0,0,.16-1.48,2.52,2.52,0,0,0-.68-1.31h0a2.57,2.57,0,0,0-2.78-.51,106.38,106.38,0,0,0-10.85,5.66A46,46,0,0,0,29,32.25a10.19,10.19,0,0,0-1.24-.07,44.34,44.34,0,0,1,6.27-4.54,104.31,104.31,0,0,1,11-5.71,3.17,3.17,0,0,1,2-.23,3.45,3.45,0,0,1,1.43.63l0,0,.31.3h0l.32.38Z"/><path class="cls-1" d="M39.89,29.89a.12.12,0,0,1,0-.05.54.54,0,0,0-.4-.16.8.8,0,0,0-.46.16s0,0,0,.05l-2.48,2.47a.72.72,0,0,0-.21.5.68.68,0,0,0,.21.49L38.09,35a.72.72,0,0,0,.49.21.69.69,0,0,0,.5-.21l2.47-2.48a.73.73,0,0,0,.22-.49.64.64,0,0,0-.22-.49l-.81-.82-.82-.82Zm.59-.66.07.07.79.82.82.82a1.54,1.54,0,0,1,.47,1.12,1.61,1.61,0,0,1-.47,1.12l-2.48,2.48a1.54,1.54,0,0,1-1.12.47,1.58,1.58,0,0,1-1.12-.47l-1.61-1.61a1.56,1.56,0,0,1-.47-1.12,1.62,1.62,0,0,1,.47-1.13l2.47-2.48.12-.11a1.6,1.6,0,0,1,1-.38,1.38,1.38,0,0,1,1,.4Z"/><path class="cls-1" d="M45.25,26.21c-.28-.28-.87-.21-1.54,0s-3,1.06-2.3,1.71l.17.17.11.11c.17.17.33.31.45.45l.35.35.35.35.45.44.11.12.17.16c.65.66,1.49-1.61,1.7-2.29s.24-1.29,0-1.57Zm-1.8-.81a2.35,2.35,0,0,1,2.41.21,2.36,2.36,0,0,1,.21,2.4A8.47,8.47,0,0,1,44.36,31c-.49.49-1,.17-1.4-.3l-.17-.17-.11-.11c-.17-.19-.33-.33-.45-.45l-.35-.35-.35-.35c-.12-.12-.28-.26-.44-.44L41,28.67c-.09-.09-.16-.14-.16-.16-.47-.47-.8-.92-.31-1.41a8.1,8.1,0,0,1,3-1.7Z"/><path class="cls-2" d="M20.41,51.05l.38-.38h0a10,10,0,1,0,14.1-14.1h0l.37-.37h0A10.5,10.5,0,1,1,20.41,51.05Z"/><path class="cls-2" d="M35.26,36.2h0A10.5,10.5,0,0,0,20.41,51.05h0l.38-.38h0a10,10,0,0,1,14.1-14.1h0Z"/><path class="cls-2" d="M33.6,37.86h0a8.2,8.2,0,0,0-4.16-2.22l-.07.4a7.64,7.64,0,0,1,3.95,2.12h0a7.75,7.75,0,0,1-11,11h0A7.73,7.73,0,0,1,20.11,43l-.4-.1a8.09,8.09,0,0,0,2.37,6.53h0A8.15,8.15,0,1,0,33.6,37.86Z"/><path class="cls-2" d="M32.25,46.18,31.94,46a4.28,4.28,0,0,1-.72.94,4.75,4.75,0,0,1-6.74,0h0a4.74,4.74,0,0,1,0-6.73,4.64,4.64,0,0,1,2-1.2l-.07-.32a5.07,5.07,0,0,0-2.2,8.48h0a5.09,5.09,0,0,0,7.2,0,5.45,5.45,0,0,0,.8-1Z"/><path class="cls-1" d="M31.57,39.89h0a5.26,5.26,0,0,0-9,3.72,5.21,5.21,0,0,0,1.54,3.72h0a5.26,5.26,0,0,0,7.44-7.44Zm.61-.6h0l.3.3,0,0a6.14,6.14,0,0,1,1.49,4,6.13,6.13,0,0,1-10.14,4.63l0,0-.3-.3h0l-.31-.31,0,0A6.13,6.13,0,0,1,31.85,39l0,0Z"/><path class="cls-1" d="M35.59,35.87h0a10.84,10.84,0,0,0-7.76-3.2,11.3,11.3,0,0,0-3.84.68l.26-.26a.88.88,0,0,0,.23-.82,12.44,12.44,0,0,1,3.32-.47A11.86,11.86,0,0,1,35.87,35h0l.31.3h0l.3.31h0a11.86,11.86,0,0,1,3.16,8.07A12.44,12.44,0,0,1,39.17,47a.91.91,0,0,0-.82.23l-.26.26a10.76,10.76,0,0,0,.68-3.84,10.62,10.62,0,0,0-3.18-7.74ZM30.4,55.19a12.07,12.07,0,0,1-2.55.28,11.82,11.82,0,0,1-8.07-3.16h0l-.3-.3h0l-.3-.31h0A11.78,11.78,0,0,1,16,43.64a11.45,11.45,0,0,1,.28-2.55l1.26-1.27a10.76,10.76,0,0,0-.68,3.84,11,11,0,0,0,3.21,7.76h0a10.93,10.93,0,0,0,7.76,3.21A11.55,11.55,0,0,0,31.69,54Z"/><path class="cls-1" d="M39.94,46.86l1.5,1.5a1.31,1.31,0,0,1,.37.93,1.37,1.37,0,0,1-.37.94L30.59,61.08a1.34,1.34,0,0,1-1.87,0l-1.5-1.5a1.25,1.25,0,0,1-.37-.93,1.32,1.32,0,0,1,.37-.94L38.07,46.86a1.33,1.33,0,0,1,.94-.39,1.42,1.42,0,0,1,.93.39ZM40.83,49l-1.5-1.5a.47.47,0,0,0-.32-.14.47.47,0,0,0-.33.14L27.83,58.34a.46.46,0,0,0-.14.33.43.43,0,0,0,.14.33l1.49,1.5a.49.49,0,0,0,.33.14A.47.47,0,0,0,30,60.5L40.83,49.65a.49.49,0,0,0,.14-.33.41.41,0,0,0-.14-.33Z"/><rect class="cls-1" x="29.39" y="57.29" width="0.75" height="0.63" transform="translate(-32.02 37.92) rotate(-45)"/><rect class="cls-1" x="27.55" y="58.55" width="1.96" height="0.63" transform="translate(-33.26 37.42) rotate(-45)"/><path class="cls-1" d="M29.53,56.08l2.72,2.71a.47.47,0,0,1,.14.33h0a.47.47,0,0,1-.14.32l-1.73,1.73a1.14,1.14,0,0,1-.82.36,1.08,1.08,0,0,1-.82-.36l-1.71-1.7a1.17,1.17,0,0,1-.35-.82,1.1,1.1,0,0,1,.35-.82l1.73-1.75a.45.45,0,0,1,.33-.14.42.42,0,0,1,.3.14Zm1.81,3L29.21,57l-1.45,1.45a.29.29,0,0,0-.1.21.26.26,0,0,0,.1.21l1.7,1.71a.3.3,0,0,0,.22.09.25.25,0,0,0,.21-.09Z"/><path class="cls-1" d="M38.8,49l-1.2,1.2L37,49.6l1.2-1.19ZM37,50.77l-.51.51-.61-.61.51-.51Zm-.75.75-4.67,4.67-.61-.6,4.68-4.68Z"/><path class="cls-1" d="M32.48,57.69l1.36-1.36-.19-.18-1.38,1.33Zm2-2,.58-.59L34.84,55l-.58.57Zm.84-.87,5.26-5.26-.19-.19L35.1,54.67Z"/><path class="cls-2" d="M45.18,26.54c0-.14-.26.07-.21.21a1.52,1.52,0,0,1,0,.73c0,.11.16.14.18,0a1.89,1.89,0,0,0,0-1Zm-.3,1.31a4.66,4.66,0,0,1-.71,1.5c-.16.21.14.23.24,0A6.38,6.38,0,0,0,45,27.87a.08.08,0,0,0-.16,0Z"/><path class="cls-2" d="M40.9,31.15l.42.42a.7.7,0,0,1,0,1l-.14.15c-.14.14-.3,0-.16-.17a.65.65,0,0,0,.07-.91l-.33-.33c-.09-.07.07-.23.14-.16Zm-.23,2.06L39.4,34.47a.87.87,0,0,1-.67.14.66.66,0,0,0,.39-.21L40.5,33c.14-.14.31,0,.17.19Z"/><path class="cls-2" d="M30.52,41h0a4.51,4.51,0,0,0-.47-.4l-.07.16c.14.12.28.24.42.38h0a3.61,3.61,0,0,1,.42,4.58l.16.09A3.81,3.81,0,0,0,30.52,41Zm-.68-.54-.42-.24-.07.17a4.36,4.36,0,0,1,.42.23ZM29,40a3.61,3.61,0,0,0-.74-.16l0,.19a3,3,0,0,1,.65.14Zm1.29,6.2a3.49,3.49,0,0,1-1.12.73l0,.18a3.58,3.58,0,0,0,1.24-.79Z"/><polygon class="cls-2" points="28.41 41.53 27.45 42.35 31.2 44.22 30.68 44.52 28.69 43.52 27.62 44.48 28.9 45.11 28.39 45.41 27.2 44.83 25.93 45.9 25.35 45.76 26.73 44.57 26.19 44.31 26.7 44.01 27.13 44.22 28.23 43.28 27.06 42.7 25.56 43.99 25.07 43.75 26.57 42.47 26.07 42.21 26.59 41.91 26.99 42.12 27.95 41.27 27.31 40.97 27.83 40.67 30.89 42.21 30.38 42.51 28.41 41.53"/><path class="cls-2" d="M33,49h0a5.41,5.41,0,0,0,.6-.68l-.72-.44c-.12.14-.26.28-.4.42a6.68,6.68,0,0,1-9.42,0h0a6.68,6.68,0,0,1,0-9.43A6.88,6.88,0,0,1,26.85,37l0-.84a7.49,7.49,0,0,0-4.23,2h0A7.51,7.51,0,0,0,33,49Z"/><path class="cls-2" d="M48.5,24A3.58,3.58,0,0,1,48.41,26a104.06,104.06,0,0,1-5.12,9.66c-.17.28-.64.09-.5-.15A91.52,91.52,0,0,0,48,25.79a4,4,0,0,0,.07-1.38c.25-.25.18-.21.44-.46ZM42.61,36.78c-.28.47-.59.94-.89,1.38-.56.85-1,.57-.59,0s.66-1,1-1.59c.16-.25.54,0,.47.21Z"/><path class="cls-2" d="M13.7,50l.38.38s0,0,0,.07l-1.17,1.17s-.05,0-.07,0l-.19-.19a.29.29,0,0,1,0-.42l1-1s0,0,.07,0Z"/><polygon class="cls-2" points="15.46 51.73 15.67 51.94 14.43 53.18 14.22 52.97 15.46 51.73"/><polygon class="cls-2" points="17.02 53.29 17.23 53.5 15.99 54.74 15.79 54.51 17.02 53.29"/><rect class="cls-1" x="17.2" y="55.42" width="1.73" height="0.3" transform="translate(-34.11 29.25) rotate(-45.23)"/><polygon class="cls-2" points="20.13 56.4 20.34 56.61 19.11 57.85 18.89 57.64 20.13 56.4"/><path class="cls-2" d="M22.1,58.39,21.72,58s0,0-.07,0l-.56.56a0,0,0,0,0,0,.07l.19.19a.31.31,0,0,0,.42,0l.38-.38s0-.07,0-.07Z"/><rect class="cls-1" x="16.69" y="48.43" width="0.35" height="5.61" transform="translate(-31.29 26.93) rotate(-45)"/><rect class="cls-1" x="19.8" y="53.46" width="0.35" height="1.78" transform="translate(-32.58 30.04) rotate(-45)"/><rect class="cls-1" x="21.66" y="55.66" width="0.35" height="1.12" transform="translate(-33.36 31.91) rotate(-45)"/><path class="cls-1" d="M14.15,57.36a.43.43,0,0,1,0-.61.45.45,0,0,1,.61,0l.86.87a.43.43,0,0,1-.61.61Zm1.94,1.94a.42.42,0,0,1,0-.6.43.43,0,0,1,.61,0l1.47,1.47a.45.45,0,0,1,0,.61.55.55,0,0,1-.14.09l-6.29,2.9a.48.48,0,0,1-.59-.21.41.41,0,0,1,0-.4h0l1.05-1.7L7,65a.43.43,0,0,1-.61-.12.42.42,0,0,1,0-.49L10,59.23,8.28,60.29a.43.43,0,0,1-.59-.14.42.42,0,0,1,0-.43l2.9-6.31a.45.45,0,0,1,.58-.21.23.23,0,0,1,.12.09h0l1.22,1.22a.43.43,0,0,1-.61.61l-.8-.8L9,58.79l2.22-1.38h0a.41.41,0,0,1,.47,0,.45.45,0,0,1,.11.61L8.42,63l4.93-3.39a.39.39,0,0,1,.49,0,.43.43,0,0,1,.14.59L12.6,62.39l4.47-2.06Z"/><path class="cls-1" d="M23.08,30l1.5,1.5a1.31,1.31,0,0,1,.37.93,1.37,1.37,0,0,1-.37.94L13.73,44.22a1.29,1.29,0,0,1-.94.37,1.25,1.25,0,0,1-.93-.37l-1.5-1.5a1.25,1.25,0,0,1-.37-.93,1.32,1.32,0,0,1,.37-.94L21.21,30a1.37,1.37,0,0,1,1.87,0ZM24,32.13l-1.5-1.5a.47.47,0,0,0-.32-.14.47.47,0,0,0-.33.14L11,41.46a.47.47,0,0,0-.14.33.49.49,0,0,0,.14.33l1.5,1.49a.43.43,0,0,0,.32.14.43.43,0,0,0,.33-.14L24,32.76a.43.43,0,0,0,.14-.33.49.49,0,0,0-.16-.3Z"/><rect class="cls-1" x="12.53" y="40.43" width="0.75" height="0.63" transform="translate(-25.03 21.06) rotate(-45)"/><rect class="cls-1" x="10.69" y="41.68" width="1.96" height="0.63" transform="translate(-26.28 20.55) rotate(-45)"/><path class="cls-1" d="M12.67,39.22l2.72,2.71a.47.47,0,0,1,.14.33h0a.47.47,0,0,1-.14.32l-1.73,1.73a1.13,1.13,0,0,1-.82.35,1.07,1.07,0,0,1-.82-.35l-1.71-1.7a1.17,1.17,0,0,1-.35-.82,1.1,1.1,0,0,1,.35-.82l1.76-1.73a.47.47,0,0,1,.32-.14.31.31,0,0,1,.28.12Zm1.81,3-2.13-2.13L10.9,41.58a.29.29,0,0,0-.1.21.26.26,0,0,0,.1.21l1.7,1.71a.28.28,0,0,0,.21.09.27.27,0,0,0,.22-.09Z"/><path class="cls-1" d="M21.93,32.15l-1.21,1.2-.61-.61,1.19-1.22Zm-1.75,1.76-.51.51-.61-.61.51-.51Zm-.75.75-4.67,4.67-.61-.6,4.67-4.68Z"/><path class="cls-1" d="M15.62,40.83,17,39.47l-.19-.18-1.36,1.35Zm2-2,.56-.59L18,38.09l-.59.59Zm.84-.87,5.26-5.26-.19-.19-5.26,5.26Z"/></g></g></g></g></g></svg>