<svg xmlns="http://www.w3.org/2000/svg" viewBox="0 0 28.66 28.66"><defs><style>.cls-1{fill:#fff;}</style></defs><g id="Calque_2" data-name="Calque 2"><g id="MOCKUP"><path class="cls-1" d="M28.08.59a2,2,0,0,0-2.83,0l-4,4L19,2.22a.57.57,0,0,0-1,.4V10.1a.58.58,0,0,0,.58.57H26a.57.57,0,0,0,.4-1L24.12,7.37l4-4A2,2,0,0,0,28.08.59Z"/><path class="cls-1" d="M28.08,25.25l-4-4L26.44,19a.57.57,0,0,0-.4-1H18.57a.58.58,0,0,0-.58.58V26a.57.57,0,0,0,1,.4l2.32-2.32,4,4a2,2,0,0,0,1.41.58,2,2,0,0,0,1.42-3.41Z"/><path class="cls-1" d="M9.69,2.22,7.37,4.54,3.41.59A2,2,0,0,0,.59.59a2,2,0,0,0,0,2.82l4,4L2.22,9.69a.57.57,0,0,0,.4,1H10.1a.58.58,0,0,0,.57-.57V2.62A.57.57,0,0,0,9.69,2.22Z"/><path class="cls-1" d="M10.1,18H2.62a.57.57,0,0,0-.4,1l2.32,2.32-3.95,4A2,2,0,0,0,2,28.66a2,2,0,0,0,1.41-.58l4-4,2.32,2.32a.57.57,0,0,0,1-.4V18.57A.58.58,0,0,0,10.1,18Z"/></g></g></svg>