<svg xmlns="http://www.w3.org/2000/svg" viewBox="0 0 28.66 28.66"><defs><style>.cls-1{fill:none;stroke:#fff;stroke-linecap:round;stroke-miterlimit:10;stroke-width:4px;}.cls-2{fill:#fff;}</style></defs><g id="Calque_2" data-name="Calque 2"><g id="MOCKUP"><line class="cls-1" x1="18.93" y1="9.73" x2="24.44" y2="4.22"/><path class="cls-2" d="M20.62,0h7.47a.57.57,0,0,1,.57.57V8.05a.57.57,0,0,1-1,.4L20.21,1A.57.57,0,0,1,20.62,0Z"/><line class="cls-1" x1="18.93" y1="18.93" x2="24.44" y2="24.44"/><path class="cls-2" d="M28.66,20.62v7.47a.56.56,0,0,1-.57.57H20.62a.57.57,0,0,1-.41-1l7.47-7.47A.57.57,0,0,1,28.66,20.62Z"/><line class="cls-1" x1="9.73" y1="9.73" x2="4.22" y2="4.22"/><path class="cls-2" d="M8.05,0H.57A.58.58,0,0,0,0,.57V8.05a.57.57,0,0,0,1,.4L8.45,1A.57.57,0,0,0,8.05,0Z"/><line class="cls-1" x1="9.73" y1="18.93" x2="4.22" y2="24.44"/><path class="cls-2" d="M8.05,28.66H.57A.57.57,0,0,1,0,28.09V20.62a.57.57,0,0,1,1-.41l7.47,7.47A.57.57,0,0,1,8.05,28.66Z"/></g></g></svg>