<svg xmlns="http://www.w3.org/2000/svg" viewBox="0 0 24.9 21.37"><defs><style>.cls-1{fill:#023c00;}</style></defs><g id="Calque_2" data-name="Calque 2"><g id="V2"><g id="Button"><g id="V8"><g id="Calque_36" data-name="Calque 36"><g id="map_-_copie_7" data-name="map - copie 7"><path class="cls-1" d="M11.65,6.55a6.27,6.27,0,1,0,6.26,6.27,6.27,6.27,0,0,0-6.26-6.27"/><path class="cls-1" d="M3.09,0A3.09,3.09,0,1,0,6.18,3.09,3.09,3.09,0,0,0,3.09,0"/><path class="cls-1" d="M23,2.28A1.93,1.93,0,1,0,24.9,4.21,1.93,1.93,0,0,0,23,2.28"/><path class="cls-1" d="M4.24,19.08a1.15,1.15,0,1,0,1.15,1.14,1.15,1.15,0,0,0-1.15-1.14"/></g></g></g></g></g></g></svg>