<svg xmlns="http://www.w3.org/2000/svg" viewBox="0 0 280.62 71.28"><defs><style>.cls-1,.cls-2{fill:#fff;}.cls-2{fill-rule:evenodd;}</style></defs><g id="Calque_2" data-name="Calque 2"><g id="Calque_1-2" data-name="Calque 1"><g id="Calque_2-2" data-name="Calque 2"><g id="Heander"><g id="Top"><g id="Logo"><g id="Layer_1" data-name="Layer 1"><path id="path3983" class="cls-1" d="M233.78,15.62c-29.49,2.62-120.81,2.62-160,2.62a23.22,23.22,0,0,1,2.85,5.48H220A36.22,36.22,0,0,1,233.78,15.62Z"/><path id="path3985" class="cls-1" d="M231.39,47.26c6.18,0,12.61-4.74,13.8-10.22,1.43-5.47-2.62-10.21-8.56-10.21-6.17,0-12.37,4.74-13.8,10.21S225.45,47.26,231.39,47.26ZM232.82,42a3.89,3.89,0,0,1-4.15-3.6,3.66,3.66,0,0,1,.15-1.4,7.36,7.36,0,0,1,6.43-5.24,4.07,4.07,0,0,1,4.16,4,3.92,3.92,0,0,1-.16,1.23A6.89,6.89,0,0,1,232.82,42Z"/><path id="path3987" class="cls-1" d="M87.51,21.82l-8.8,33.77,7.6-4.51,3.81-15.46h10.71L102,30.38H91.57c.47-2.62,1.43-5.71,2.16-8.56Z"/><polygon id="polygon3989" class="cls-1" points="112.71 26.34 106.31 26.34 101.07 47.5 107.24 47.5 112.71 26.34"/><path id="path3991" class="cls-1" d="M130.56,47.5,127,40.37a9.3,9.3,0,0,0,5.94-6.67c1.19-4.28-1.66-7.37-6.67-7.37H115.54l-1.19,5.48h10c1.66,0,2.38.72,2.15,1.89s-1.66,1.89-3.09,1.89H113.16l-2.85,11.88h6.17L118.14,41H120l3.09,6.43h7.44Z"/><path id="path3993" class="cls-1" d="M154.81,31.81,156,26.33H138.16l-1.43,5.48Zm-19,3.78-3.08,11.88H150.8l1.43-5.23H140.57l.46-2.62h10.71l1-3.81H142Z"/><path id="path3995" class="cls-1" d="M188.83,47.5H196l-3.08-21.17h-7.14l-14,21.17h7.14l1.89-2.86h7.86Zm-5.24-7.13,3.32-5.24,1,5.24Z"/><polygon id="polygon3997" class="cls-1" points="206.42 42.26 210.23 26.34 204.03 26.34 198.58 47.5 215.47 47.5 216.64 42.26 206.42 42.26"/><polygon id="polygon3999" class="cls-1" points="165.05 30.38 167.18 22.05 161 22.05 152.44 55.59 160.04 51.05 163.86 35.85 174.31 35.85 177.89 30.38 165.05 30.38"/><path id="path4001" class="cls-1" d="M238.76,18.48c7.36,0,13.07,4,14.75,10L248,31.32c-1.19-4.52-5.24-7.6-10.71-7.6-7.6,0-15.46,5.94-17.35,13.3s2.85,13.31,10.71,13.31c5.47,0,10.94-3.09,14.26-7.37l4.28,2.62c-4.74,5.94-12.37,10-20,10-10.71,0-17.35-8.33-14.75-18.55C216.89,26.8,227.81,18.48,238.76,18.48Z"/><polygon id="polygon4003" class="cls-1" points="275.38 47.73 280.62 26.57 274.44 26.57 265.86 36.55 262.31 26.34 256.13 26.34 250.66 47.5 257.07 47.5 259.92 36.32 263.26 46.31 271.82 36.32 268.97 47.73 275.38 47.73"/><polygon id="polygon4005" class="cls-1" points="78.71 55.59 86.34 51.05 90.13 35.6 83.72 35.6 78.71 55.59"/><polygon id="polygon4007" class="cls-1" points="101.07 47.5 107.24 47.5 110.35 35.6 103.92 35.6 101.07 47.5"/><path id="path4009" class="cls-1" d="M132.22,35.59h-19l-2.85,11.88h6.17L118.2,41h1.9l3.08,6.43h7.37L127,40.34A9.16,9.16,0,0,0,132.22,35.59Z"/><polygon id="polygon4011" class="cls-1" points="141.03 39.64 151.72 39.64 152.68 35.85 141.97 35.85 141.97 35.85 138.65 35.85 135.79 35.6 132.71 47.5 150.76 47.5 152.19 42.26 140.54 42.26 141.03 39.64"/><polygon id="polygon4013" class="cls-1" points="171.69 47.5 178.82 47.5 180.74 44.64 188.57 44.64 188.83 47.5 195.96 47.5 194.28 35.85 187.15 35.85 187.87 40.36 183.59 40.36 186.68 35.85 179.55 35.85 171.69 47.5"/><polygon id="polygon4015" class="cls-1" points="207.84 35.85 201.67 35.85 198.58 47.5 215.47 47.5 216.64 42.26 206.42 42.26 207.84 35.85"/><polygon id="polygon4017" class="cls-1" points="152.44 55.59 160.04 51.05 163.86 35.85 157.43 35.85 152.44 55.59"/><path id="path4019" class="cls-1" d="M220.45,35.85h-5.71a11.9,11.9,0,0,0-.23,1.19c-2.62,10.22,4,18.55,14.75,18.55a26.37,26.37,0,0,0,20-10L245,43c-3.32,4.28-8.79,7.37-14.26,7.37-7.86,0-12.6-5.94-10.71-13.31C220.21,36.55,220.21,36.09,220.45,35.85Z"/><polygon id="polygon4021" class="cls-1" points="257.07 47.5 259.92 36.32 263.26 46.31 271.82 36.32 268.97 47.73 275.38 47.73 278.23 35.85 266.35 35.85 265.86 36.55 265.63 35.85 253.75 35.85 250.66 47.5 257.07 47.5"/></g><g id="Calque_3" data-name="Calque 3"><path class="cls-2" d="M27.17,5.12c1.73,0,4.1,1.76,7.37,3.82A97.52,97.52,0,0,1,50.35,21.63,87.71,87.71,0,0,1,62.41,36.79c2,3.15,3.77,5.4,3.82,7.18A31.67,31.67,0,0,0,35.69,4a33.59,33.59,0,0,0-8.52,1.16Z"/><path class="cls-2" d="M49.9,21.45c9.82,9.82,16,19.57,13.82,21.74-.86.87-2.85.45-5.56-1l-.35-1.54c2,1,3.53,1.17,4.21.49,2-2-3.58-10.66-12.37-19.46A77.22,77.22,0,0,0,36.9,11.2l-.44-1A87.15,87.15,0,0,1,49.9,21.45ZM57.2,41.7c-.35-.21-.7-.42-1.08-.63l-.23-1.41c.37.21.72.42,1.08.61Zm-3.91-2.53A83.43,83.43,0,0,1,45.69,33l.38-.77A70.49,70.49,0,0,0,53.2,38ZM38.49,25.75C30.73,17.26,26.21,9.54,28.13,7.63c.1-.07.17-.14.28-.21l1.78,1.91h0c-1.71,1.71,2.24,8.52,9.07,16ZM31.76,9,30.54,7.32A15,15,0,0,1,34,8.75L34.66,10A10.61,10.61,0,0,0,31.76,9Z"/><path class="cls-1" d="M50.28,21.07A96.34,96.34,0,0,1,63,36.41c2.88,4.54,4,8,2.62,9.38s-4.84.26-9.38-2.62A85.33,85.33,0,0,1,45,34.36l.3-.73a84.33,84.33,0,0,0,11.3,8.91c4.23,2.69,7.36,3.81,8.46,2.71s0-4.23-2.73-8.44A95.75,95.75,0,0,0,49.72,21.59,94.85,94.85,0,0,0,34.49,9c-4.23-2.69-7.36-3.82-8.44-2.72s.05,4.24,2.74,8.45a85.54,85.54,0,0,0,9,11.43l-.68.35a86.83,86.83,0,0,1-8.95-11.36c-2.88-4.54-4-8-2.62-9.38s4.84-.26,9.37,2.62A95.91,95.91,0,0,1,50.28,21.07Z"/><path class="cls-2" d="M48.9,22.45c-6.27-6.26-12.3-10.38-13.5-9.19-.46.47-.11,1.66.85,3.35l.93.28c-.65-1.24-.86-2.13-.49-2.51,1.08-1.07,6.48,2.62,12.07,8.21a56.4,56.4,0,0,1,6.8,8l.61.31a65.24,65.24,0,0,0-7.27-8.47ZM36.6,17.19l.42.66.84.21c-.14-.24-.28-.45-.4-.66Zm1.68,2.43A47.81,47.81,0,0,0,42,24l.42-.21a50.54,50.54,0,0,1-3.42-4Zm9.14,9.87C52.59,34.17,57.08,37,58.09,36a.91.91,0,0,0,.11-.16L57,34.66h0c-.89.89-4.82-1.52-9.33-5.61Zm9.69,4.26,1,.79a10.12,10.12,0,0,0-1-2.1L56.38,32a6.3,6.3,0,0,1,.73,1.76Z"/><path class="cls-2" d="M49.29,22.06c6.81,6.8,11.09,13.53,9.57,15.05-1.29,1.29-6.31-1.59-11.93-6.61l.19-.38c5.21,4.63,9.85,7.28,11,6.08,1.42-1.42-2.57-7.71-8.94-14s-12.62-10.34-14-8.93c-.4.39-.37,1.14,0,2.17l-.91-.56c-.4-1.1-.42-1.92,0-2.34,1.5-1.5,8.23,2.78,15,9.57Zm-8.37,2.47c-1.31-1.47-2.48-2.9-3.48-4.23l.65.14c.92,1.24,2,2.55,3.21,3.91ZM37.09,19l-.8-.35c-.42-.63-.79-1.24-1.1-1.8l.85.44C36.34,17.81,36.69,18.4,37.09,19Z"/><path class="cls-2" d="M49.06,22.29c5.29,5.28,8.61,10.5,7.41,11.69-.95,1-4.67-1.1-8.91-4.82l1.78-3.55-.77-2.48-1.87-1-1.92.44-2.55,1.29c-3.74-4.26-5.87-8-4.88-9,1.21-1.2,6.45,2.12,11.71,7.41Z"/><polygon class="cls-2" points="30.52 14.22 31.43 15.11 29.09 17.45 28.18 16.56 30.52 14.22"/><rect class="cls-1" x="26.9" y="17.5" width="1.22" height="1.29" transform="translate(-4.77 24.76) rotate(-45)"/><rect class="cls-1" x="58.07" y="43.8" width="2.57" height="1.29" transform="translate(-14.03 55.05) rotate(-45.05)"/><rect class="cls-1" x="56.41" y="46.13" width="1.22" height="1.29" transform="translate(-16.38 53.94) rotate(-44.94)"/><polygon class="cls-2" points="53.62 49.25 54.53 50.16 55.89 48.78 55 47.89 53.62 49.25"/><rect class="cls-1" x="50.2" y="42.29" width="2.62" height="1.73" transform="translate(-15.43 49.06) rotate(-45)"/><rect class="cls-1" x="49.18" y="37.63" width="1.66" height="1.73" transform="translate(-12.57 46.63) rotate(-45)"/><rect class="cls-1" x="50.62" y="35.93" width="2.15" height="1.73" transform="translate(-10.88 47.33) rotate(-45)"/><rect class="cls-1" x="24.38" y="11.62" width="3.65" height="1.73" transform="translate(-1.15 22.18) rotate(-45)"/><rect class="cls-1" x="23.26" y="14.24" width="0.68" height="1.73" transform="translate(-3.77 21.11) rotate(-45)"/><rect class="cls-1" x="20.11" y="16.75" width="1.99" height="1.73" transform="translate(-6.27 20.08) rotate(-45)"/><rect class="cls-1" x="36.3" y="18" width="2.32" height="1.29" transform="translate(-2.21 31.95) rotate(-45)"/><rect class="cls-1" x="35.35" y="19.53" width="1.12" height="1.29" transform="translate(-3.75 31.3) rotate(-45)"/><rect class="cls-1" x="31.07" y="20.01" width="1.22" height="1.29" transform="translate(-5.33 28.41) rotate(-44.94)"/><rect class="cls-1" x="59.38" y="45.62" width="4.49" height="1.29" transform="translate(-14.65 57.19) rotate(-45.05)"/><polygon class="cls-2" points="57.92 49.04 58.84 49.93 59.73 49.07 58.81 48.15 57.92 49.04"/><path class="cls-1" d="M53.88,63.91a1,1,0,0,1,1.39.26l0,0A1,1,0,0,1,55,65.61l0,0a33.25,33.25,0,0,1-4.77,2.58A34.4,34.4,0,0,1,45.13,70a1,1,0,0,1-1.25-.67.43.43,0,0,1,0-.05,1,1,0,0,1,.66-1.25l.06,0a30.55,30.55,0,0,0,4.8-1.73A33.42,33.42,0,0,0,53.88,63.91Zm-13.17,5a1,1,0,1,1,.31,2c-.56.09-1.17.16-1.8.23s-1.22.12-1.83.14a1,1,0,0,1-.09-2.06c.58,0,1.14-.07,1.71-.11l1.7-.24Zm-7.34.31a1,1,0,1,1-.14,2A35.3,35.3,0,0,1,12.81,63l1.78-1.2a33.4,33.4,0,0,0,18.78,7.36Zm-21-6.55-1.07-1,1.8-1.15.28.23ZM9.75,60.15,9.59,60c-.26-.26-.49-.54-.73-.8l2-.87Zm-1.4-1.57A35.45,35.45,0,0,1,0,35.64a34.75,34.75,0,0,1,.21-3.81,36.8,36.8,0,0,1,.61-3.76,1,1,0,0,1,2,.42A29.45,29.45,0,0,0,2.27,32c-.12,1.2-.19,2.4-.19,3.6A33.6,33.6,0,0,0,9.49,56.69ZM4,24.35a1,1,0,0,1-1.94-.68c.16-.49.38-1,.61-1.54s.44-1,.68-1.52a1,1,0,0,1,1.84.86h0c-.21.47-.42,1-.63,1.45A15.27,15.27,0,0,0,4,24.35ZM8.45,15.9A1,1,0,0,1,6.8,14.71a35.69,35.69,0,0,1,61.65,35.1,36.1,36.1,0,0,1-8.28,11.84,1,1,0,0,1-1.41,0l0,0a1,1,0,0,1,0-1.41l0,0A33.63,33.63,0,0,0,20.48,5.69a33,33,0,0,0-12,10.17Z"/><path class="cls-1" d="M14.69,47.47l-1.9,1.9a1.51,1.51,0,0,0-.34,2.11,1.37,1.37,0,0,0,.34.34l3.44,3.44h0l3.44,3.44a1.84,1.84,0,0,0,1.12.61,1.83,1.83,0,0,0,1.34-.66L24,56.71l.42.8-1.76,1.77a2.58,2.58,0,0,1-2,.92A2.58,2.58,0,0,1,19,59.33l-3.44-3.44h0l-3.44-3.43a2.69,2.69,0,0,1-.86-1.67,2.57,2.57,0,0,1,.91-2l1.71-1.7Z"/><rect class="cls-1" x="12.33" y="50.97" width="2.99" height="0.87" transform="translate(-32.31 24.85) rotate(-45.02)"/><polygon class="cls-1" points="14.01 53.7 16.14 51.59 16.74 52.2 14.62 54.33 14.01 53.7"/><rect class="cls-1" x="15.43" y="54.07" width="2.99" height="0.87" transform="translate(-33.58 27.91) rotate(-44.98)"/><rect class="cls-1" x="17" y="55.64" width="2.99" height="0.87" transform="translate(-34.23 29.5) rotate(-45)"/><rect class="cls-1" x="18.54" y="57.19" width="2.99" height="0.87" transform="translate(-34.88 31.05) rotate(-45)"/><polygon class="cls-1" points="13.63 48.5 22.92 57.79 24.02 56.71 24.46 57.51 23.24 58.72 22.92 59.03 22.61 58.72 12.72 48.81 12.42 48.5 12.72 48.2 13.89 47.05 14.69 47.47 13.63 48.5"/><path class="cls-1" d="M12.74,45.49a12.9,12.9,0,0,0,4.19,2.8c.21.1.42.17.63.26a10.66,10.66,0,0,0,.61,1.1,11.2,11.2,0,0,1-1.57-.54,14.36,14.36,0,0,1-4.46-3A13.92,13.92,0,0,1,31.83,26.43l.09.09.09.1-.39.72a8.21,8.21,0,0,0-4,.16,8,8,0,0,0-3.43,2.06,7.75,7.75,0,0,0-.94,1.12l-.4-.39a.85.85,0,0,0-.25-.17,9.35,9.35,0,0,1,1-1.17,9,9,0,0,1,3.81-2.26,8.51,8.51,0,0,1,3.09-.36A13.15,13.15,0,0,0,22,23.22a13,13,0,0,0-13,13,12.75,12.75,0,0,0,3.76,9.24Z"/><path class="cls-1" d="M16.72,46.19a12.71,12.71,0,0,1-2.13-3.46l.66-.66a12,12,0,0,0,1.19,2.34C16.51,45,16.6,45.6,16.72,46.19Zm5.82-16.07a9.35,9.35,0,0,1,1-1.17A9,9,0,0,1,30,26.31a12.08,12.08,0,0,0-6-.26,11.81,11.81,0,0,0-6,3.25,12,12,0,0,0-3.51,8l-.87.86v-.4A12.87,12.87,0,0,1,31,25.76l.15.07.32.3.31.31.09.09s.07.07.09.1l-.39.72h-.87a8,8,0,0,0-6.58,2.34,6.67,6.67,0,0,0-.93,1.12l-.4-.4a.55.55,0,0,0-.26-.26Z"/><path class="cls-1" d="M25.93,58.7a12.9,12.9,0,0,1-2.8-4.19,5.87,5.87,0,0,1-.24-.63,9.06,9.06,0,0,1-1.1-.61,10.77,10.77,0,0,0,.54,1.57,14.4,14.4,0,0,0,3,4.47A13.92,13.92,0,0,0,45,39.62l-.1-.1-.09-.09-.73.4a8.09,8.09,0,0,1-.16,4,7.88,7.88,0,0,1-2.06,3.44,6.67,6.67,0,0,1-1.12.93l.4.4a.54.54,0,0,1,.16.26,8.58,8.58,0,0,0,1.17-1A9.08,9.08,0,0,0,44.74,44,8.81,8.81,0,0,0,45.11,41a13,13,0,0,1-9.92,21.46,12.76,12.76,0,0,1-9.26-3.76Z"/><path class="cls-1" d="M25.26,54.7a12.71,12.71,0,0,0,3.46,2.13l.65-.66A11.19,11.19,0,0,1,27,55a11.65,11.65,0,0,1-1.77-.28Zm16.06-5.8a8.58,8.58,0,0,0,1.17-1,9.3,9.3,0,0,0,2.13-3.35,8.75,8.75,0,0,0,.51-3.13,12.09,12.09,0,0,1,.26,6.06,11.78,11.78,0,0,1-3.25,5.94,12,12,0,0,1-8,3.51l-.87.86h.4A12.87,12.87,0,0,0,46.5,44.88a12.64,12.64,0,0,0-.83-4.51l-.07-.14c-.09-.1-.18-.21-.3-.33s-.19-.2-.3-.3l-.1-.1-.09-.09-.73.4h0v.12h0v0h0v.23h0v.07h0a8.69,8.69,0,0,1-.42,3.58,8.21,8.21,0,0,1-1.92,3,6.67,6.67,0,0,1-1.12.93l.39.4a.77.77,0,0,1,.26.28Z"/><rect class="cls-1" x="17.06" y="49.66" width="1.4" height="0.54" transform="translate(-30.11 27.18) rotate(-45)"/><rect class="cls-1" x="17.52" y="50.13" width="1.4" height="0.44" transform="translate(-30.27 27.63) rotate(-45)"/><rect class="cls-1" x="18.13" y="50.75" width="1.4" height="0.44" transform="translate(-30.53 28.24) rotate(-45)"/><rect class="cls-1" x="20.53" y="53.17" width="1.4" height="0.44" transform="translate(-31.53 30.65) rotate(-45)"/><path class="cls-1" d="M49.08,23a3.58,3.58,0,0,1,.64,1.42,3.43,3.43,0,0,1-.24,2,111.15,111.15,0,0,1-5.7,11,42.32,42.32,0,0,1-4.54,6.26,10.31,10.31,0,0,0-.07-1.24A46.09,46.09,0,0,0,43,36.86,108.09,108.09,0,0,0,48.69,26a2.5,2.5,0,0,0,.16-1.48,2.55,2.55,0,0,0-.68-1.31h0a2.57,2.57,0,0,0-2.78-.51,108.46,108.46,0,0,0-10.85,5.66A46.33,46.33,0,0,0,29,32.23a10.31,10.31,0,0,0-1.24-.07A44.48,44.48,0,0,1,34,27.62a103.22,103.22,0,0,1,11-5.71,3.2,3.2,0,0,1,2-.23,3.41,3.41,0,0,1,1.43.63h0l.31.3h0l.32.38Z"/><path class="cls-1" d="M39.89,29.87v-.05a.55.55,0,0,0-.4-.16.82.82,0,0,0-.46.16v.05l-2.48,2.47a.71.71,0,0,0-.21.5.69.69,0,0,0,.21.49L38.09,35a.71.71,0,0,0,.49.21.67.67,0,0,0,.5-.21l2.47-2.48a.74.74,0,0,0,.22-.49.64.64,0,0,0-.22-.49l-.81-.82-.82-.82Zm.59-.66.07.07.79.82.82.82A1.57,1.57,0,0,1,42.63,32a1.58,1.58,0,0,1-.47,1.12l-2.48,2.48a1.57,1.57,0,0,1-1.12.47,1.58,1.58,0,0,1-1.12-.47L35.83,34a1.57,1.57,0,0,1-.47-1.12,1.61,1.61,0,0,1,.47-1.13L38.3,29.3l.12-.11a1.59,1.59,0,0,1,1-.38,1.4,1.4,0,0,1,1,.4Z"/><path class="cls-1" d="M45.25,26.19c-.28-.28-.87-.21-1.54,0s-3,1.06-2.3,1.71l.17.17.11.11c.17.17.33.31.45.45l.35.35.35.35.45.44.11.12.17.16c.65.66,1.49-1.61,1.7-2.29a1.85,1.85,0,0,0,0-1.57Zm-1.8-.81a2.35,2.35,0,0,1,2.41.21,2.38,2.38,0,0,1,.21,2.4,8.5,8.5,0,0,1-1.71,3c-.49.49-1,.17-1.4-.3l-.17-.17-.11-.11c-.17-.19-.33-.33-.45-.45l-.35-.35-.35-.35c-.12-.12-.28-.26-.44-.44L41,28.65c-.09-.09-.16-.14-.16-.16-.47-.47-.8-.92-.31-1.41a8.28,8.28,0,0,1,3-1.7Z"/><path class="cls-2" d="M20.41,51l.38-.38h0A10,10,0,1,0,36,37.64a10.2,10.2,0,0,0-1.09-1.09h0l.37-.37h0A10.5,10.5,0,1,1,20.41,51Z"/><path class="cls-2" d="M35.26,36.18h0A10.5,10.5,0,0,0,20.41,51h0l.38-.38h0a10,10,0,0,1,14.1-14.1h0Z"/><path class="cls-2" d="M33.6,37.84h0a8.25,8.25,0,0,0-4.16-2.22l-.07.4a7.69,7.69,0,0,1,3.95,2.12h0a7.78,7.78,0,0,1-11,11h0A7.74,7.74,0,0,1,20.11,43l-.4-.1a8.11,8.11,0,0,0,2.37,6.53h0A8.16,8.16,0,1,0,33.6,37.84Z"/><path class="cls-2" d="M32.25,46.16,31.94,46a4.43,4.43,0,0,1-.72.94,4.75,4.75,0,0,1-6.72,0l0,0h0a4.74,4.74,0,0,1,0-6.7l0,0a4.61,4.61,0,0,1,2-1.2l-.07-.32a5.07,5.07,0,0,0-2.2,8.48h0a5.09,5.09,0,0,0,7.2,0h0a5.49,5.49,0,0,0,.8-1Z"/><path class="cls-1" d="M31.57,39.87h0a5.26,5.26,0,0,0-9,3.72,5.19,5.19,0,0,0,1.54,3.72h0a5.26,5.26,0,0,0,7.44-7.44Zm.61-.6h0l.3.3h0a6.13,6.13,0,0,1-8.65,8.63h0l-.3-.3h0l-.31-.31h0A6.13,6.13,0,0,1,31.85,39h0Z"/><path class="cls-1" d="M35.59,35.85h0a10.86,10.86,0,0,0-7.76-3.2,11.18,11.18,0,0,0-3.84.68l.26-.26a.88.88,0,0,0,.23-.82,12.86,12.86,0,0,1,3.32-.47A11.86,11.86,0,0,1,35.87,35h0l.31.3h0l.3.31h0a11.9,11.9,0,0,1,3.16,8.07A12.44,12.44,0,0,1,39.17,47a.92.92,0,0,0-.82.23l-.26.26a11.06,11.06,0,0,0-2.5-11.58ZM30.4,55.17a12.15,12.15,0,0,1-2.55.28,11.79,11.79,0,0,1-8.07-3.16h0l-.3-.3h0l-.3-.31h0A11.77,11.77,0,0,1,16,43.62a11.52,11.52,0,0,1,.28-2.55l1.26-1.27a10.72,10.72,0,0,0-.68,3.84,11,11,0,0,0,3.21,7.76h0a10.92,10.92,0,0,0,7.76,3.21A11.53,11.53,0,0,0,31.69,54Z"/><path class="cls-1" d="M39.94,46.84l1.5,1.5a1.33,1.33,0,0,1,.37.93,1.36,1.36,0,0,1-.37.94L30.59,61.06a1.33,1.33,0,0,1-1.87,0l-1.5-1.5a1.24,1.24,0,0,1-.37-.93,1.31,1.31,0,0,1,.37-.94L38.07,46.84a1.33,1.33,0,0,1,.94-.39A1.4,1.4,0,0,1,39.94,46.84ZM40.83,49l-1.5-1.5a.43.43,0,0,0-.32-.14.47.47,0,0,0-.33.14L27.83,58.32a.47.47,0,0,0-.14.33.44.44,0,0,0,.14.33l1.49,1.5a.47.47,0,0,0,.33.14.46.46,0,0,0,.35-.14L40.83,49.63A.47.47,0,0,0,41,49.3a.42.42,0,0,0-.14-.33Z"/><rect class="cls-1" x="29.39" y="57.27" width="0.75" height="0.63" transform="translate(-32 37.91) rotate(-45)"/><rect class="cls-1" x="27.56" y="58.54" width="1.96" height="0.63" transform="translate(-33.26 37.42) rotate(-45)"/><path class="cls-1" d="M29.53,56.06l2.72,2.71a.47.47,0,0,1,.14.33h0a.43.43,0,0,1-.14.32l-1.73,1.73a1.11,1.11,0,0,1-.82.36,1.08,1.08,0,0,1-.82-.36l-1.71-1.7a1.16,1.16,0,0,1-.35-.82,1.1,1.1,0,0,1,.35-.82l1.73-1.75a.47.47,0,0,1,.33-.14A.43.43,0,0,1,29.53,56.06Zm1.81,3L29.21,57l-1.45,1.45a.27.27,0,0,0,0,.42l1.7,1.71a.31.31,0,0,0,.22.09.24.24,0,0,0,.21-.09Z"/><path class="cls-1" d="M38.8,49l-1.2,1.2-.6-.6,1.2-1.19ZM37,50.75l-.51.51-.61-.61.51-.51Zm-.75.75-4.67,4.67-.61-.6,4.68-4.68Z"/><path class="cls-1" d="M32.48,57.67l1.36-1.36-.19-.18-1.38,1.33Zm2-2,.58-.59-.22-.1-.58.57Zm.84-.87,5.26-5.26-.19-.19-5.29,5.3Z"/><path class="cls-2" d="M45.18,26.52c0-.14-.26.07-.21.21a1.5,1.5,0,0,1,0,.73.09.09,0,1,0,.18,0,1.89,1.89,0,0,0,0-1Zm-.3,1.31a4.6,4.6,0,0,1-.71,1.5c-.16.21.14.23.24,0A6.1,6.1,0,0,0,45,27.85a.08.08,0,0,0-.16,0Z"/><path class="cls-2" d="M40.9,31.13l.42.42a.7.7,0,0,1,0,1h0l-.14.15c-.14.14-.3,0-.16-.17a.65.65,0,0,0,.07-.91l-.33-.33C40.67,31.22,40.83,31.06,40.9,31.13Zm-.23,2.06L39.4,34.45a.84.84,0,0,1-.67.14.65.65,0,0,0,.39-.21L40.5,33c.14-.14.31,0,.17.19Z"/><path class="cls-2" d="M30.52,41h0a4.51,4.51,0,0,0-.47-.4l-.07.16c.14.12.28.24.42.38h0a3.61,3.61,0,0,1,.42,4.58l.16.09A3.81,3.81,0,0,0,30.52,41Zm-.68-.54-.42-.24-.07.17.42.23ZM29,40a3.76,3.76,0,0,0-.74-.16V40a2.9,2.9,0,0,1,.65.14Zm1.29,6.2a3.5,3.5,0,0,1-1.12.73v.18a3.46,3.46,0,0,0,1.24-.79Z"/><polygon class="cls-2" points="28.41 41.51 27.45 42.33 31.2 44.2 30.68 44.5 28.69 43.5 27.62 44.46 28.9 45.09 28.39 45.39 27.2 44.81 25.93 45.88 25.35 45.74 26.73 44.55 26.19 44.29 26.7 43.99 27.13 44.2 28.23 43.26 27.06 42.68 25.56 43.97 25.07 43.73 26.57 42.45 26.07 42.19 26.59 41.89 26.99 42.1 27.95 41.25 27.31 40.95 27.83 40.65 30.89 42.19 30.38 42.49 28.41 41.51"/><path class="cls-2" d="M33,49h0a5.51,5.51,0,0,0,.6-.68l-.72-.44c-.12.14-.26.28-.4.42a6.68,6.68,0,0,1-9.42,0h0a6.68,6.68,0,0,1,0-9.43A6.92,6.92,0,0,1,26.85,37v-.84a7.5,7.5,0,0,0-4.23,2h0A7.51,7.51,0,0,0,33,49Z"/><path class="cls-2" d="M48.5,24a3.58,3.58,0,0,1-.09,2,106.07,106.07,0,0,1-5.12,9.66c-.17.28-.64.09-.5-.15A91.61,91.61,0,0,0,48,25.77a4,4,0,0,0,.07-1.38c.25-.25.18-.21.44-.46ZM42.61,36.76c-.28.47-.59.94-.89,1.38-.56.85-1,.57-.59,0a16.84,16.84,0,0,0,1-1.59c.16-.25.54,0,.47.21Z"/><path class="cls-2" d="M13.7,50l.38.38v.07L12.91,51.6h-.07l-.19-.19a.29.29,0,0,1,0-.41h0l1-1h0Z"/><polygon class="cls-2" points="15.46 51.71 15.67 51.92 14.43 53.16 14.22 52.95 15.46 51.71"/><polygon class="cls-2" points="17.02 53.27 17.23 53.48 15.99 54.72 15.79 54.49 17.02 53.27"/><rect class="cls-1" x="17.2" y="55.39" width="1.73" height="0.3" transform="translate(-34.09 29.25) rotate(-45.23)"/><polygon class="cls-2" points="20.13 56.38 20.34 56.59 19.11 57.83 18.89 57.62 20.13 56.38"/><path class="cls-2" d="M22.1,58.37,21.72,58h-.07l-.56.56m0,.07.19.19a.31.31,0,0,0,.42,0l.38-.38v-.07Z"/><rect class="cls-1" x="16.69" y="48.41" width="0.35" height="5.61" transform="translate(-31.27 26.93) rotate(-45)"/><rect class="cls-1" x="19.8" y="53.44" width="0.35" height="1.78" transform="translate(-32.56 30.04) rotate(-45)"/><rect class="cls-1" x="21.66" y="55.64" width="0.35" height="1.12" transform="translate(-33.35 31.9) rotate(-45)"/><path class="cls-1" d="M14.15,57.34a.43.43,0,0,1,0-.61h0a.45.45,0,0,1,.61,0l.86.87a.43.43,0,0,1-.61.61h0Zm1.94,1.94a.41.41,0,0,1,0-.59h0a.43.43,0,0,1,.61,0h0l1.47,1.47a.45.45,0,0,1,0,.61.42.42,0,0,1-.14.09l-6.29,2.9a.47.47,0,0,1-.59-.21.41.41,0,0,1,0-.4h0l1-1.7L7,65a.43.43,0,0,1-.6-.1v0a.41.41,0,0,1,0-.49L10,59.21,8.28,60.27a.43.43,0,0,1-.59-.14.42.42,0,0,1,0-.43l2.9-6.31a.46.46,0,0,1,.58-.21.27.27,0,0,1,.12.09h0l1.22,1.22a.43.43,0,0,1-.61.61h0l-.8-.8L9,58.77l2.22-1.38h0a.41.41,0,0,1,.47,0,.45.45,0,0,1,.11.61L8.42,63l4.93-3.39a.41.41,0,0,1,.49,0,.44.44,0,0,1,.14.59L12.6,62.37l4.47-2.06Z"/><path class="cls-1" d="M23.08,30l1.5,1.5a1.33,1.33,0,0,1,.37.93,1.36,1.36,0,0,1-.37.94L13.73,44.2a1.27,1.27,0,0,1-.94.37,1.25,1.25,0,0,1-.93-.37l-1.5-1.5a1.24,1.24,0,0,1-.37-.93,1.31,1.31,0,0,1,.37-.94L21.21,30A1.37,1.37,0,0,1,23.08,30ZM24,32.11l-1.5-1.5a.43.43,0,0,0-.32-.14.47.47,0,0,0-.33.14L11,41.44a.46.46,0,0,0,0,.66l1.5,1.49a.43.43,0,0,0,.32.14.44.44,0,0,0,.33-.14L24,32.74a.44.44,0,0,0,.14-.33.52.52,0,0,0-.16-.3Z"/><rect class="cls-1" x="12.53" y="40.41" width="0.75" height="0.63" transform="translate(-25.02 21.05) rotate(-45)"/><rect class="cls-1" x="10.69" y="41.66" width="1.96" height="0.63" transform="translate(-26.26 20.54) rotate(-45)"/><path class="cls-1" d="M12.67,39.2l2.72,2.71a.47.47,0,0,1,.14.33h0a.43.43,0,0,1-.14.32l-1.73,1.73a1.1,1.1,0,0,1-.82.35,1.07,1.07,0,0,1-.82-.35l-1.71-1.7a1.16,1.16,0,0,1-.35-.82,1.1,1.1,0,0,1,.35-.82l1.76-1.73a.43.43,0,0,1,.32-.14A.31.31,0,0,1,12.67,39.2Zm1.81,3-2.13-2.13L10.9,41.56a.27.27,0,0,0,0,.42l1.7,1.71a.3.3,0,0,0,.43,0Z"/><path class="cls-1" d="M21.93,32.13l-1.21,1.2-.61-.61L21.3,31.5Zm-1.75,1.76-.51.51-.61-.61.51-.51Zm-.75.75-4.67,4.67-.61-.6L18.82,34Z"/><path class="cls-1" d="M15.62,40.81,17,39.45l-.19-.18-1.36,1.35Zm2-2,.56-.59L18,38.07l-.59.59Zm.84-.87,5.26-5.26-.19-.19-5.26,5.26Z"/></g></g></g></g></g></g></g></svg>