<svg xmlns="http://www.w3.org/2000/svg" viewBox="0 0 109.03 109.03"><defs><style>.cls-1{opacity:0.2;}.cls-2{fill:#07ef00;}</style></defs><g id="Calque_2" data-name="Calque 2"><g id="UI"><g id="HUD"><g id="_4_-_copie" data-name="4 - copie"><g id="Booster_-_copie_2" data-name="Booster - copie 2"><g class="cls-1"><circle class="cls-2" cx="54.52" cy="54.52" r="54.52"/></g><path class="cls-2" d="M54.52,5A49.52,49.52,0,1,1,5,54.52,49.57,49.57,0,0,1,54.52,5m0-5A54.52,54.52,0,1,0,109,54.52,54.52,54.52,0,0,0,54.52,0Z"/></g><path class="cls-2" d="M86,45.89,62,21.85a2.64,2.64,0,0,0-4.19.61L55,27.64a2.64,2.64,0,0,0,.46,3.12l2.61,2.61C51.66,35,44.48,39.2,38.17,45.52,26,57.66,28.45,79.76,28.45,79.76S50.56,82.18,62.7,70C69,63.73,73.22,56.56,74.85,50.17l2.24,2.24a2.64,2.64,0,0,0,3.12.46l5.18-2.79A2.64,2.64,0,0,0,86,45.89ZM71.41,39a2,2,0,1,1-.33,3.15A2.26,2.26,0,0,1,71.41,39ZM66,33.62a2,2,0,1,1-.32,3.15A2.25,2.25,0,0,1,66,33.62Zm-5-4.87c.9-1,2.2-1.33,2.88-.71S64.41,30,63.5,31s-2.19,1.33-2.88.71S60.11,29.76,61,28.75ZM57,28c-.51-.36-.31-1.56.47-2.67s1.82-1.73,2.33-1.37.31,1.55-.46,2.67S57.47,28.34,57,28ZM63.32,60.4c-8,8-22.3,6.8-22.3,6.8s-1.25-14.28,6.79-22.31c5.1-5.1,10.23-7.43,14.4-7.36L70.68,46C70.75,50.17,68.42,55.31,63.32,60.4ZM76.16,47.23c-.62-.68-.3-2,.71-2.88s2.33-1.09,2.94-.4.3,2-.71,2.88S76.77,47.92,76.16,47.23Zm6.38,3.2c-1.11.78-2.31,1-2.67.47s.26-1.56,1.37-2.34,2.31-1,2.67-.46S83.66,49.66,82.54,50.43Z"/></g></g></g></g></svg>