<svg xmlns="http://www.w3.org/2000/svg" viewBox="0 0 11.22 24.87"><defs><style>.cls-1{fill:#07ef00;}</style></defs><g id="Calque_2" data-name="Calque 2"><g id="UI"><g id="HUD"><path class="cls-1" d="M11.22,24.87,9.55,13.28,8.26,11.67a30.38,30.38,0,0,0-1-7.81c-.07-.23-.13-.44-.2-.64-.22-.72-.45-1.33-.65-1.83L6.21.8C6.11.57,6,.37,5.93.2A.34.34,0,0,0,5.71,0h-.1a.37.37,0,0,0-.18.05A.29.29,0,0,0,5.29.2C5.15.49,5,.89,4.77,1.39a24.47,24.47,0,0,0-.85,2.47,30.76,30.76,0,0,0-1,7.81L1.68,13.28,0,24.87l3.45-2.78c.06.72.14,1.45.22,2.2H4l.15.38h3l.14-.38h.31c.08-.75.15-1.48.22-2.2Z"/></g></g></g></svg>