<svg xmlns="http://www.w3.org/2000/svg" viewBox="0 0 44.15 35.76"><defs><style>.cls-1,.cls-3{fill:none;stroke-miterlimit:10;}.cls-1{stroke:#07ef00;stroke-width:2.75px;}.cls-2{fill:#07ef00;}.cls-3{stroke:#000;stroke-linecap:round;stroke-width:3px;opacity:0.2;}</style></defs><g id="Calque_2" data-name="Calque 2"><g id="UI"><g id="Help"><g id="Calque_44" data-name="Calque 44"><path class="cls-1" d="M27.91,19.75a26.42,26.42,0,0,1,13.25,9.54"/><polygon class="cls-2" points="34.2 27.36 40.68 28.63 41.94 22.16 44.15 25.45 42.88 31.92 36.41 30.65 34.2 27.36"/><rect class="cls-2" x="1.76" y="-0.26" width="24" height="36.28" rx="12" transform="translate(5.7 -3.19) rotate(16.66)"/><line class="cls-3" x1="16.09" y1="10.1" x2="14.99" y2="13.76"/><path class="cls-2" d="M16.09,8.6a1.65,1.65,0,0,1,.43.06,1.5,1.5,0,0,1,1,1.87l-1.09,3.66A1.51,1.51,0,0,1,15,15.26a1.59,1.59,0,0,1-.43-.06,1.51,1.51,0,0,1-1-1.87l1.1-3.66A1.5,1.5,0,0,1,16.09,8.6m0-1h0a2.52,2.52,0,0,0-2.4,1.78L12.6,13.05a2.5,2.5,0,0,0,1.67,3.11,2.55,2.55,0,0,0,.72.1,2.52,2.52,0,0,0,2.4-1.78l1.09-3.67A2.5,2.5,0,0,0,16.8,7.7a2.44,2.44,0,0,0-.71-.1Z"/></g></g></g></g></svg>