<svg xmlns="http://www.w3.org/2000/svg" viewBox="0 0 24 36.28"><defs><style>.cls-1{fill:#07ef00;}.cls-2{fill:none;stroke:#000;stroke-linecap:round;stroke-miterlimit:10;stroke-width:3px;opacity:0.2;}.cls-3{opacity:0.3;}</style></defs><g id="Calque_2" data-name="Calque 2"><g id="UI"><g id="Help"><g id="Calque_44" data-name="Calque 44"><rect class="cls-1" width="24" height="36.28" rx="12"/><line class="cls-2" x1="12" y1="10.02" x2="12" y2="13.84"/><path class="cls-3" d="M12,15.34h0a1.5,1.5,0,0,1-1.5-1.5V10A1.5,1.5,0,0,1,12,8.52h0V0A12,12,0,0,0,0,12v6.14H12Z"/><path class="cls-1" d="M12,8.52A1.5,1.5,0,0,1,13.5,10v3.82a1.5,1.5,0,0,1-3,0V10A1.5,1.5,0,0,1,12,8.52m0-1A2.5,2.5,0,0,0,9.5,10v3.82a2.5,2.5,0,0,0,5,0V10A2.5,2.5,0,0,0,12,7.52Z"/></g></g></g></g></svg>