<svg xmlns="http://www.w3.org/2000/svg" viewBox="0 0 374.88 374.73"><defs><style>.cls-1,.cls-2{fill:#07ef00;}.cls-1{opacity:0.3;}</style></defs><g id="Calque_2" data-name="Calque 2"><g id="V2"><g id="Window"><path class="cls-1" d="M334.14,347.31l-108.5,27.42H149.23L40.74,347.31,0,297.59v-232L60.69,15.82,177.47,39.24h19.94L314.2,15.82l60.68,49.72v232Z"/><path class="cls-2" d="M314.2,15.82h0L277,0h-179L60.69,15.82h0L0,65.54v232l40.74,49.72,108.5,27.42h76.4l108.5-27.42,40.74-49.72v-232Zm53.68,279.27-37.69,46L224.77,367.73H150.11L44.69,341.09,7,295.09V68.85L62.56,23.33,176.09,46.1l.68.14h21.34l.68-.14L312.32,23.33l55.56,45.52Z"/><path class="cls-2" d="M371.83,63.67l-55.2-45.23-2.56-2.1-3.25.65L197.51,39.72H177.37L64.07,17l-3.25-.65-2.57,2.1-8,6.59L3.05,63.67.49,65.77V297.41l1.58,1.94,13.35,16.29,24.13,29.45L41,346.88l2.23.56L148.46,374l.84.22h76.28l.84-.22,105.21-26.59,2.24-.56,1.46-1.79,24.51-29.91,13-15.83,1.59-1.94V65.77ZM367.4,294.91l-13,15.83-24.5,29.92L224.71,367.25H150.17L45,340.66,20.84,311.2,7.49,294.91V69.08L54.64,30.45l8-6.59L176,46.58l.73.15h21.43l.73-.15,113.3-22.72L367.4,69.08Z"/></g></g></g></svg>